<?xml version="1.0" encoding="utf-8"?>
<!-- Generator: Adobe Illustrator 21.1.0, SVG Export Plug-In . SVG Version: 6.00 Build 0)  -->
<svg version="1.1" id="Layer_1" xmlns="http://www.w3.org/2000/svg" xmlns:xlink="http://www.w3.org/1999/xlink" x="0px" y="0px"
	 viewBox="0 0 856 857" style="enable-background:new 0 0 856 857;" xml:space="preserve">
<style type="text/css">
	.st0{fill:#CCCCCC;}
</style>
<g>
	<g>
		<path class="st0" d="M835.5,289h-815c-7.1,0-13-5.9-13-13V161c0-7.1,5.9-13,13-13h815c7.2,0,13,5.9,13,13v115
			C848.5,283.1,842.7,289,835.5,289z"/>
	</g>
	<g>
		<path class="st0" d="M835.5,499h-815c-7.1,0-13-5.9-13-13V371c0-7.1,5.9-13,13-13h815c7.2,0,13,5.9,13,13v115
			C848.5,493.1,842.7,499,835.5,499z"/>
	</g>
	<g>
		<path class="st0" d="M835.5,709h-815c-7.1,0-13-5.8-13-13V581c0-7.2,5.9-13,13-13h815c7.2,0,13,5.8,13,13v115
			C848.5,703.2,842.7,709,835.5,709z"/>
	</g>
</g>
</svg>
