<?xml version="1.0" encoding="utf-8"?>
<!-- Generator: Adobe Illustrator 21.1.0, SVG Export Plug-In . SVG Version: 6.00 Build 0)  -->
<svg version="1.1" id="Layer_1" xmlns="http://www.w3.org/2000/svg" xmlns:xlink="http://www.w3.org/1999/xlink" x="0px" y="0px"
	 viewBox="0 0 30 1366" enable-background="new 0 0 30 1366" xml:space="preserve">
<path fill-rule="evenodd" clip-rule="evenodd" d="M8.3079,0c0.3472,1.5109,0.5934,3.3228,0.5934,5.8692
	c0,8.9661-2.1688,8.9661-2.1688,17.9321c0,8.9656,1.6603,8.9656,1.6603,17.9313c0,8.9625-2.8144,8.9625-2.8144,17.925
	c0,8.965,0.1844,8.965,0.1844,17.9299c0,8.9639,2.7073,8.9639,2.7073,17.9278c0,8.9636-0.8342,8.9636-0.8342,17.9273
	c0,8.9627,1.7812,8.9627,1.7812,17.9255c0,8.9643-1.2834,8.9643-1.2834,17.9285c0,8.9629-3.5793,8.9629-3.5793,17.9257
	c0,8.9619,4.4952,8.9619,4.4952,17.9236c0,8.9617-0.4843,8.9617-0.4843,17.9233c0,8.9637-1.7891,8.9637-1.7891,17.9273
	c0,8.9632-1.2327,8.9632-1.2327,17.9263c0,8.9641,2.2141,8.9641,2.2141,17.928c0,8.9631,1.1301,8.9631,1.1301,17.9262
	c0,8.9628-3.5318,8.9628-3.5318,17.9255c0,8.9625,0.3773,8.9625,0.3773,17.925c0,8.9625,1.4941,8.9625,1.4941,17.9249
	c0,8.9626-1.9652,8.9626-1.9652,17.9253c0,8.9634,0.189,8.9634,0.189,17.9269c0,8.9626,0.8509,8.9626,0.8509,17.9252
	c0,8.9617,2.3458,8.9617,2.3458,17.9235c0,8.9624-1.2916,8.9624-1.2916,17.9248c0,8.9623,0.6378,8.9623,0.6378,17.9245
	c0,8.9614-2.0467,8.9614-2.0467,17.9228c0,8.963,3.3732,8.963,3.3732,17.926c0,8.961-1.0356,8.961-1.0356,17.9221
	c0,8.9631-0.1025,8.9631-0.1025,17.9261c0,8.9608,0.9838,8.9608,0.9838,17.9216c0,8.9623-3.3188,8.9623-3.3188,17.9246
	c0,8.9608-0.792,8.9608-0.792,17.9216c0,8.9609,3.3323,8.9609,3.3323,17.9219c0,8.9617-3.5475,8.9617-3.5475,17.9235
	c0,8.96,0.5521,8.96,0.5521,17.92c0,8.9615,1.8139,8.9615,1.8139,17.923c0,8.9608-1.114,8.9608-1.114,17.9215
	c0,8.9595-0.8123,8.9595-0.8123,17.9191c0,8.9611,0.5222,8.9611,0.5222,17.9223c0,8.9608,1.7417,8.9608,1.7417,17.9215
	c0,8.9591-1.1556,8.9591-1.1556,17.9182c0,8.9598,1.9943,8.9598,1.9943,17.9197c0,8.9622-0.5167,8.9622-0.5167,17.9245
	c0,8.9615-1.4779,8.9615-1.4779,17.9232c0,8.9622-0.321,8.9622-0.321,17.9244c0,8.9615,1.9958,8.9615,1.9958,17.923
	c0,8.9623-2.5704,8.9623-2.5704,17.9246c0,8.9614,2.7341,8.9614,2.7341,17.9228c0,8.9623,0.6053,8.9623,0.6053,17.9247
	c0,8.9614-3.2214,8.9614-3.2214,17.9228c0,8.9618,1.4808,8.9618,1.4808,17.9236c0,8.9616,0.0981,8.9616,0.0981,17.9232
	c0,8.9613,1.4768,8.9613,1.4768,17.9227c0,8.9622-1.5323,8.9622-1.5323,17.9244c0,8.9612,1.8017,8.9612,1.8017,17.9224
	c0,8.9615-3.6871,8.9615-3.6871,17.923c0,8.9617,0.6373,8.9617,0.6373,17.9235c0,8.9611-1.146,8.9611-1.146,17.9221
	c0,8.9615,4.0469,8.9615,4.0469,17.9231s-4.2396,8.9615-4.2396,17.9232c0,8.9609,3.3615,8.9609,3.3615,17.9219
	c0,8.9613-1.2941,8.9613-1.2941,17.9226c0,8.9618-1.048,8.9618-1.048,17.9236c0,8.9607,2.1995,8.9607,2.1995,17.9216
	s1.5064,8.9609,1.5064,17.922c0,8.962-0.6191,8.962-0.6191,17.9242c0,8.9609-0.2991,8.9609-0.2991,17.9221
	c0,8.9606-0.4201,8.9606-0.4201,17.9213c0,8.9612-0.0024,8.9612-0.0024,17.9224c0,8.9618-0.1292,8.9618-0.1292,17.9235
	c0,8.9607-2.3118,8.9607-2.3118,17.9214c0.0001,8.9607,1.098,8.9607,1.098,17.9211c0,8.9612,0.7771,8.9612,0.7771,17.9224
	c0,8.9617-2.6017,8.9617-2.6017,17.9233c0,8.9607,2.3083,8.9607,2.3083,17.9213c0,8.9603-0.382,8.9603-0.382,17.9207
	c0,8.2015-0.1362,8.9161-0.1593,15.8453h14.762c-0.4637-6.5737,4.0672-7.7896,4.0672-15.8693c0-8.9661-4.1486-8.9661-4.1486-17.9321
	c0-8.9657,2.6595-8.9657,2.6595-17.9313c0-8.9624,0.0447-8.9624,0.0447-17.925c0-8.9648-2.0383-8.9648-2.0383-17.9299
	c0-8.9639,1.2902-8.9639,1.2902-17.9277c0-8.9636-2.3948-8.9636-2.3948-17.9272c0-8.9629,4.4631-8.9629,4.4631-17.9255
	c0-8.9644-0.145-8.9644-0.145-17.9286c0-8.9628-4.338-8.9628-4.338-17.9257c0-8.9619,2.5217-8.9619,2.5217-17.9237
	c0-8.9617,0.387-8.9617,0.387-17.9232c0-8.9637,1.0047-8.9637,1.0047-17.9275c0-8.9631-0.6141-8.9631-0.6141-17.9263
	c0-8.964-2.2385-8.964-2.2385-17.928c0-8.9631,0.2829-8.9631,0.2829-17.9263c0-8.9626-0.4124-8.9626-0.4124-17.9254
	c0-8.9625,0.8064-8.9625,0.8064-17.9252c0.0001-8.9624,1.3087-8.9624,1.3087-17.9248c0-8.9626-0.6832-8.9626-0.6832-17.9253
	c0-8.9635-2.334-8.9635-2.334-17.9269c0-8.9626,2.8994-8.9626,2.8994-17.9252c0-8.9618,1.7631-8.9618,1.7631-17.9235
	c0-8.9625,0.0496-8.9625,0.0496-17.9249c0.0001-8.9622-4.012-8.9622-4.012-17.9245c0-8.9614,1.4254-8.9614,1.4254-17.9228
	c0-8.963,2.304-8.963,2.304-17.926c0-8.9611-4.2357-8.9611-4.2357-17.9221c0-8.9631,0.7054-8.9631,0.7054-17.9262
	c0-8.9608,1.4005-8.9608,1.4005-17.9215c0-8.9623,0.0037-8.9623,0.0037-17.9246c0-8.9608-0.6984-8.9608-0.6984-17.9215
	c0-8.961,1.3779-8.961,1.3779-17.9219c0-8.9617-1.2349-8.9617-1.2349-17.9235c0-8.96-0.1322-8.96-0.1322-17.92
	c0-8.9615-0.7222-8.9615-0.7222-17.923c0-8.9608-0.3574-8.9608-0.3574-17.9215c0-8.9596,4.1208-8.9596,4.1208-17.9191
	c0-8.9612-2.0222-8.9612-2.0222-17.9223c0-8.9608,0.5615-8.9608,0.5615-17.9216c0-8.9591-2.0763-8.9591-2.0763-17.9182
	c0-8.9598,0.413-8.9598,0.413-17.9197c0-8.9622,3.1094-8.9622,3.1094-17.9244c0-8.9616-4.1182-8.9616-4.1182-17.9232
	c0-8.9622,2.554-8.9622,2.554-17.9244c0-8.9615,1.4363-8.9615,1.4363-17.923c0-8.9622-3.7982-8.9622-3.7982-17.9245
	c0-8.9614,0.4462-8.9614,0.4462-17.9229c0-8.9623,0.6865-8.9623,0.6865-17.9247c0-8.9614-1.9694-8.9614-1.9694-17.9227
	c0-8.9619,2.0574-8.9619,2.0574-17.9236c0-8.9615,1.4382-8.9615,1.4382-17.9231c0-8.9614,0.3704-8.9614,0.3704-17.9227
	c0-8.9622-1.1474-8.9622-1.1474-17.9244c0-8.9612-2.364-8.9612-2.364-17.9224c0-8.9615,4.2766-8.9615,4.2766-17.923
	c0-8.9617-1.8339-8.9617-1.8339-17.9235c0-8.9611-2.4116-8.9611-2.4116-17.9221c0-8.9615,1.3335-8.9615,1.3335-17.9231
	s2.5041-8.9615,2.5041-17.9232c0-8.9609-1.3267-8.9609-1.3267-17.9218c0-8.9614-1.5107-8.9614-1.5107-17.9227
	c0-8.9617,2.606-8.9617,2.606-17.9235c0-8.9609-1.814-8.9609-1.814-17.9217c0-8.961,0.3499-8.961,0.3499-17.922
	c0-8.9621,2.1009-8.9621,2.1009-17.9243c0-8.961-3.6767-8.961-3.6767-17.922c0-8.9607-0.3082-8.9607-0.3082-17.9213
	c0-8.9612,1.9924-8.9612,1.9924-17.9224c0-8.9618-1.9364-8.9618-1.9364-17.9235c0-8.9607,1.2252-8.9607,1.2252-17.9214
	c0-8.9605-1.269-8.9605-1.269-17.9211c0-8.9611-0.7416-8.9611-0.7416-17.9222c0-8.9617,1.8594-8.9617,1.8594-17.9234
	c0-8.9606,1.8491-8.9606,1.8491-17.9213c0-8.9603-1.4719-8.9603-1.4719-17.9207c0-2.5336,0.0488-4.3394,0.1178-5.8453H8.3079z"/>
</svg>
